<svg width="178" height="146" viewBox="0 0 178 146" fill="none" xmlns="http://www.w3.org/2000/svg">
<path id="&#226;&#128;&#156;" d="M71.3543 1.97227L71.318 1.31865L70.697 1.52566C48.2798 8.99804 30.7627 20.6659 18.8489 35.7268C6.93234 50.7911 0.642578 69.224 0.642578 90.1833C0.642578 107.541 4.98173 121.361 12.2147 130.854C19.4547 140.357 29.5792 145.5 41.0634 145.5C59.8334 145.5 74.3342 130.357 74.3342 110.442C74.3342 102.598 72.2201 95.7913 67.909 89.8163C63.6484 83.9112 57.2615 78.8456 48.7134 74.3879V66.9458C48.7134 43.8339 56.4099 26.1069 71.7739 13.1067L71.964 12.9458L71.9501 12.6972L71.3543 1.97227ZM174.002 1.97227L173.966 1.31865L173.345 1.52566C150.928 8.99804 133.411 20.6659 121.497 35.7268C109.58 50.7911 103.29 69.224 103.29 90.1833C103.29 107.541 107.63 121.361 114.863 130.854C122.103 140.357 132.227 145.5 143.711 145.5C162.481 145.5 176.982 130.357 176.982 110.442C176.982 102.598 174.868 95.7913 170.557 89.8163C166.296 83.9112 159.909 78.8456 151.361 74.3879V66.9458C151.361 43.8339 159.058 26.1069 174.422 13.1067L174.612 12.9458L174.598 12.6972L174.002 1.97227Z" stroke="#5C3B23" stroke-opacity="0.1" style="stroke:#5C3B23;stroke:color(display-p3 0.3608 0.2314 0.1373);stroke-opacity:0.1;"/>
</svg>
