<svg width="636" height="222" viewBox="0 0 636 222" fill="none" xmlns="http://www.w3.org/2000/svg">
<g clip-path="url(#clip0_1800_25684)">
<path d="M5.5 380.525L623.5 308.025C705.543 426.025 736.519 547.83 693.5 301.525C693.863 318.59 667.498 280.453 667.5 297.525C667.5 297.525 662.504 239.282 662.5 279.025C662.498 295.951 656 259.525 656 259.525C656 263.002 645.064 220.696 644.5 223.525C644.424 223.908 640.212 220.202 640 220.525C640.371 221.452 636.137 217.035 635.698 218.005C635.631 218.153 635.548 218.297 635.465 218.438C632.337 218.742 628.926 218.517 625.772 218.512C607.983 218.482 592.865 213.605 580.106 200.785C570.468 191.101 564.452 178.361 563.062 164.774C562.523 159.51 562.665 154.207 562.671 148.923L562.708 128.016C562.72 120.993 562.93 113.902 562.194 106.907C560.06 86.6172 550.779 67.3227 536.366 52.8924C518.153 34.6561 495.152 26.5272 469.678 26.5001L247.415 26.5044L186.826 26.5C172.189 26.4989 156.729 25.4044 142.336 28.3311C125.098 31.8362 109.04 40.4787 96.5957 52.9131C82.4481 67.0496 73.4479 85.7023 70.9953 105.524C70.0424 113.225 70.187 121.014 70.1906 128.758L70.2172 155.992C70.2187 173.392 65.3375 188.343 52.8065 200.846C43.4291 210.203 31.126 216.537 17.8974 218.009C11.9722 218.668 5.95246 218.488 0 218.476V215.598L5.5 380.525Z" fill="#FEFEFE"/>
<path d="M0 216.073C6.04273 216.069 12.1722 216.198 18.177 215.434C30.2603 213.896 41.9724 207.988 50.5709 199.389C59.913 190.045 65.8327 177.657 67.0537 164.493C67.5487 159.157 67.3293 153.71 67.3236 148.353C67.3086 134.22 66.3518 116.937 68.359 103.21C73.7613 66.2665 101.675 35.6531 137.918 26.7213C148.005 24.2354 157.994 24.0261 168.318 24.0114L388.477 24.0184L447.033 24.0166C461.369 24.0147 476.56 22.9496 490.671 25.7399C508.942 29.3526 525.334 38.2154 538.5 51.3537C555.843 68.6597 565.572 92.0315 565.582 116.528L565.555 145.126C565.531 166.73 565.996 183.011 582.34 199.312C592.169 209.115 605.281 214.976 619.108 215.841C624.56 216.182 636.47 216 636.47 216L636.5 218.5L636.47 219C636.47 219 628.926 218.992 625.772 218.987C607.983 218.957 592.865 214.08 580.106 201.26C570.468 191.576 564.452 178.836 563.062 165.249C562.523 159.985 562.665 154.682 562.671 149.398L562.708 128.491C562.72 121.468 562.93 114.377 562.194 107.382C560.06 87.0923 550.779 67.7978 536.366 53.3675C518.153 35.1312 495.152 27.0023 469.678 26.9752L247.415 26.9795L186.826 26.9751C172.189 26.974 156.729 25.8795 142.336 28.8062C125.098 32.3113 109.04 40.9538 96.5957 53.3882C82.4481 67.5247 73.4479 86.1774 70.9953 105.999C70.0424 113.7 70.187 121.489 70.1906 129.233L70.2172 156.467C70.2187 173.867 65.3375 188.818 52.8065 201.321C43.4291 210.678 31.126 217.012 17.8974 218.484C11.9722 219.143 5.95246 218.963 0 218.951V216.073Z" fill="#3E3D3D"/>
</g>
<defs>
<clipPath id="clip0_1800_25684">
<rect width="636" height="222" fill="white"/>
</clipPath>
</defs>
</svg>
