<svg width="38" height="38" viewBox="0 0 38 38" fill="none" xmlns="http://www.w3.org/2000/svg">
<rect x="1" y="1" width="36" height="36" rx="18" stroke="white" style="stroke:white;stroke-opacity:1;" stroke-width="2"/>
<path fill-rule="evenodd" clip-rule="evenodd" d="M19 13.5061C20.5895 13.5061 21.878 12.2176 21.878 10.628C21.878 9.03855 20.5895 7.75 19 7.75C17.4105 7.75 16.1219 9.03855 16.1219 10.628C16.1219 12.2176 17.4105 13.5061 19 13.5061ZM17.2329 16.0223C16.7358 16.0223 16.3329 16.4252 16.3329 16.9223V29.35C16.3329 29.847 16.7358 30.25 17.2329 30.25H20.7683C21.2653 30.25 21.6683 29.847 21.6683 29.35V16.9223C21.6683 16.4252 21.2653 16.0223 20.7683 16.0223H17.2329Z" fill="white" style="fill:white;fill-opacity:1;"/>
</svg>
