<svg width="523" height="162" viewBox="0 0 523 162" fill="none" xmlns="http://www.w3.org/2000/svg">
<path d="M83.6878 14C101.266 14 116.055 25.9381 120.389 42.1491C138.366 45.1548 143.692 60.7853 143.692 79.6159C143.692 98.2182 138.695 113.698 121.04 116.967C117.77 134.623 102.291 147.995 83.6878 147.995C65.8027 147.995 50.8045 135.635 46.7684 118.991C29.2408 115.618 16 100.2 16 81.6882C16 63.2891 29.0798 47.9457 46.4481 44.4482C49.9455 27.0798 65.2891 14 83.6878 14Z" fill="url(#paint0_radial_2032_480)"/>
<path d="M83.6878 14C101.266 14 116.055 25.9381 120.389 42.1491C138.366 45.1548 143.692 60.7853 143.692 79.6159C143.692 98.2182 138.695 113.698 121.04 116.967C117.77 134.623 102.291 147.995 83.6878 147.995C65.8027 147.995 50.8045 135.635 46.7684 118.991C29.2408 115.618 16 100.2 16 81.6882C16 63.2891 29.0798 47.9457 46.4481 44.4482C49.9455 27.0798 65.2891 14 83.6878 14Z" fill="url(#paint1_radial_2032_480)"/>
<path d="M83.6878 14C101.266 14 116.055 25.9381 120.389 42.1491C138.366 45.1548 143.692 60.7853 143.692 79.6159C143.692 98.2182 138.695 113.698 121.04 116.967C117.77 134.623 102.291 147.995 83.6878 147.995C65.8027 147.995 50.8045 135.635 46.7684 118.991C29.2408 115.618 16 100.2 16 81.6882C16 63.2891 29.0798 47.9457 46.4481 44.4482C49.9455 27.0798 65.2891 14 83.6878 14Z" fill="url(#paint2_radial_2032_480)"/>
<path d="M83.6878 14C101.266 14 116.055 25.9381 120.389 42.1491C138.366 45.1548 143.692 60.7853 143.692 79.6159C143.692 98.2182 138.695 113.698 121.04 116.967C117.77 134.623 102.291 147.995 83.6878 147.995C65.8027 147.995 50.8045 135.635 46.7684 118.991C29.2408 115.618 16 100.2 16 81.6882C16 63.2891 29.0798 47.9457 46.4481 44.4482C49.9455 27.0798 65.2891 14 83.6878 14Z" fill="url(#paint3_radial_2032_480)"/>
<path d="M72.1658 113.207V63.3276H94.5604V113.207H110.947V48.7869H55.7795V113.207H72.1658Z" fill="#333333"/>
<path d="M135.274 113.207L140.645 99.5871H164.314L169.685 113.207H187.255L160.491 48.4188H144.742L117.978 113.207H135.274ZM152.48 69.1254L159.125 86.3349H145.834L152.48 69.1254Z" fill="#333333"/>
<path d="M210.674 113.207V89.1878H222.69C229.791 89.1878 235.435 87.3472 239.623 83.574C243.81 79.8008 245.904 74.9232 245.904 68.9413C245.904 62.9594 243.81 58.1739 239.623 54.4007C235.435 50.6275 229.791 48.7869 222.69 48.7869H194.288V113.207H210.674ZM210.674 62.7754H221.507C226.332 62.7754 229.336 65.0761 229.336 69.1254C229.336 73.1747 226.241 75.5674 221.507 75.5674H210.674V62.7754Z" fill="#333333"/>
<path d="M287.619 114.496C294.082 114.496 299.908 113.115 305.097 110.447V94.0653C300.637 97.4704 295.084 99.2189 288.347 99.2189C282.794 99.2189 278.151 97.5624 274.419 94.1573C270.777 90.7523 268.957 86.3349 268.957 80.9972C268.957 75.7515 270.777 71.3341 274.328 67.929C277.878 64.5239 282.339 62.7754 287.71 62.7754C293.627 62.7754 298.998 64.3399 304.005 67.4689V51.1797C298.998 48.6949 293.536 47.4985 287.528 47.4985C277.332 47.4985 268.866 50.6275 262.129 56.8855C255.483 63.1435 252.115 71.15 252.115 80.9972C252.115 90.8443 255.483 98.8508 262.22 105.109C268.957 111.367 277.423 114.496 287.619 114.496Z" fill="#333333"/>
<path d="M327.481 114.496C330.485 114.496 333.398 113.852 337.403 111.919C341.409 109.986 345.506 105.385 348.419 99.0349L371.815 48.7869H354.427L342.228 76.7638L328.3 48.7869H310.184L334.126 93.053C331.486 98.2066 329.119 99.8631 324.476 99.8631C321.381 99.8631 318.559 99.2189 316.101 97.8385V112.011C319.105 113.668 322.838 114.496 327.481 114.496Z" fill="#333333"/>
<path d="M394.166 113.207V86.4269H418.199V113.207H434.585V48.7869H418.199V71.7022H394.166V48.7869H377.779V113.207H394.166Z" fill="#333333"/>
<path d="M458.874 113.207L464.245 99.5871H487.914L493.286 113.207H510.855L484.091 48.4188H468.342L441.578 113.207H458.874ZM476.08 69.1254L482.725 86.3349H469.434L476.08 69.1254Z" fill="#333333"/>
<defs>
<radialGradient id="paint0_radial_2032_480" cx="0" cy="0" r="1" gradientUnits="userSpaceOnUse" gradientTransform="translate(79.8458 169.417) rotate(-90) scale(82.4167 78.54)">
<stop offset="0.376658" stop-color="#ACFD45"/>
<stop offset="1" stop-color="#47FE42" stop-opacity="0"/>
</radialGradient>
<radialGradient id="paint1_radial_2032_480" cx="0" cy="0" r="1" gradientUnits="userSpaceOnUse" gradientTransform="translate(79.8459 0.462418) rotate(90) scale(66.9635 63.8137)">
<stop offset="0.268634" stop-color="#ACFD45"/>
<stop offset="1" stop-color="#47FE42" stop-opacity="0"/>
</radialGradient>
<radialGradient id="paint2_radial_2032_480" cx="0" cy="0" r="1" gradientUnits="userSpaceOnUse" gradientTransform="translate(163.769 80.9972) rotate(180) scale(61.8753 66.9528)">
<stop offset="0.323077" stop-color="#ACFD45"/>
<stop offset="1" stop-color="#47FE42" stop-opacity="0"/>
</radialGradient>
<radialGradient id="paint3_radial_2032_480" cx="0" cy="0" r="1" gradientUnits="userSpaceOnUse" gradientTransform="translate(3.27959 80.9973) scale(59.9417 64.8605)">
<stop offset="0.323077" stop-color="#ACFD45"/>
<stop offset="1" stop-color="#47FE42" stop-opacity="0"/>
</radialGradient>
</defs>
</svg>
