<svg width="40" height="40" viewBox="0 0 40 40" fill="none" xmlns="http://www.w3.org/2000/svg">
<rect width="40" height="40" rx="19.7753" fill="white"/>
<path fill-rule="evenodd" clip-rule="evenodd" d="M14.0809 12C13.8631 12 13.6865 12.1766 13.6865 12.3944V27.6056C13.6865 27.8234 13.8631 28 14.0809 28H18.0753C18.2931 28 18.4697 27.8234 18.4697 27.6056V12.3944C18.4697 12.1766 18.2931 12 18.0753 12H14.0809ZM21.9255 12C21.7077 12 21.5311 12.1766 21.5311 12.3944V27.6056C21.5311 27.8234 21.7077 28 21.9255 28H25.9198C26.1377 28 26.3143 27.8234 26.3143 27.6056V12.3944C26.3143 12.1766 26.1377 12 25.9198 12H21.9255Z" fill="black"/>
</svg>
