<svg width="60" height="60" viewBox="0 0 60 60" fill="none" xmlns="http://www.w3.org/2000/svg">
<path d="M30 58.5C14.2599 58.5 1.5 45.7401 1.5 30C1.5 14.2599 14.2599 1.5 30 1.5C45.7401 1.5 58.5 14.2599 58.5 30C58.5 45.7401 45.7401 58.5 30 58.5Z" stroke="white" stroke-opacity="0.5" style="stroke:white;stroke-opacity:0.5;" stroke-width="3"/>
<path d="M37.4517 41.4828H26.7207C26.6159 41.4828 26.5182 41.4295 26.4611 41.3412L18.5594 29.1192C17.3213 26.967 20.545 25.099 21.7831 27.2513L24.2892 30.7572C24.4646 31.0025 24.8502 30.878 24.8502 30.5761V16.8639C24.8502 14.3787 28.4871 14.3787 28.4871 16.8639V22.6109C28.4871 22.7825 28.6257 22.9215 28.7966 22.9215H28.9514C29.1223 22.9215 29.2563 22.7798 29.2969 22.6132C29.6745 21.064 32.8978 21.1668 32.8978 22.9215V23.5428C32.8978 23.7144 33.0363 23.8535 33.2073 23.8535H33.362C33.533 23.8535 33.667 23.7118 33.7068 23.545C34.0765 21.996 37.2311 22.0988 37.2311 23.8535V24.5524C37.2311 24.724 37.3696 24.8631 37.5406 24.8631H37.7179C37.8888 24.8631 38.0228 24.7214 38.0632 24.5547C38.4385 23.0056 41.6417 23.1084 41.6417 24.8631L41.7187 31.5829C41.719 31.6074 41.7182 31.629 41.7151 31.6533C41.6639 32.0635 41.0797 36.1783 37.7103 41.3421C37.6534 41.4293 37.5555 41.4828 37.4517 41.4828Z" fill="white" style="fill:white;fill-opacity:1;"/>
<path d="M37.618 45H26.5526V42.9462C26.5526 42.7748 26.6909 42.6358 26.8617 42.6356L37.308 42.6205C37.4791 42.6203 37.618 42.7594 37.618 42.9312V45Z" fill="white" style="fill:white;fill-opacity:1;"/>
</svg>
