<svg width="48" height="48" viewBox="0 0 48 48" fill="none" xmlns="http://www.w3.org/2000/svg">
<g clip-path="url(#clip0_2182_172)">
<rect width="48" height="48" fill="white"/>
<g clip-path="url(#clip1_2182_172)">
<path d="M1.40085 48.2973L1.40002 45.2253C1.40859 42.2837 1.8808 39.9696 3.8774 37.6867C5.27841 36.0849 7.15912 34.91 9.25871 34.4389C10.8439 34.0833 12.5102 34.1402 14.125 34.1425C16.3901 34.1455 18.7593 34.2839 21.0128 34.0432C24.3761 33.6835 27.5877 32.1069 29.9775 29.7554C35.3512 24.4684 34.4504 18.8832 34.4642 12.0872C34.4701 9.15705 35.3348 6.46428 37.479 4.36184C40.8684 1.03823 44.4801 1.40149 48.8928 1.42055V1.91455C44.6849 1.91048 41.1543 1.45325 37.8959 4.6665C35.4244 7.10383 34.973 9.53677 34.9746 12.8547L34.9807 17.3688C34.9815 18.4298 35.0119 19.4949 34.9074 20.5522C34.5487 24.1904 32.942 27.4862 30.3319 30.067C27.8818 32.4898 24.6656 34.1201 21.2045 34.5203C19.8817 34.6736 18.5424 34.6436 17.2127 34.6438L13.523 34.6391C10.0696 34.6335 7.34861 34.8969 4.76859 37.4377C1.83023 40.3313 1.90617 43.2486 1.91181 47.0585L1.91217 48.2973H1.40085Z" fill="black"/>
<path d="M1.0936 48L1.09277 44.9279C1.10134 41.9864 1.57354 39.6722 3.57015 37.3893C4.97116 35.7875 6.85186 34.6127 8.95146 34.1416C10.5366 33.7859 12.2029 33.8429 13.8178 33.8451C16.0828 33.8482 18.452 33.9866 20.7055 33.7458C24.0688 33.3861 27.2804 31.8095 29.6702 29.4581C35.0439 24.1711 34.1432 18.5858 34.1569 11.7898C34.1628 8.85968 35.0276 6.16692 37.1718 4.06448C40.5611 0.740865 44.1729 1.10413 48.5855 1.12319V1.61719C44.3776 1.61311 40.8471 1.15589 37.5887 4.36914C35.1172 6.80647 34.6658 9.23941 34.6673 12.5574L34.6735 17.0715C34.6742 18.1324 34.7046 19.1975 34.6002 20.2549C34.2415 23.8931 32.6347 27.1888 30.0246 29.7696C27.5746 32.1924 24.3583 33.8227 20.8973 34.223C19.5744 34.3762 18.2352 34.3462 16.9055 34.3465L13.2158 34.3417C9.76235 34.3362 7.04136 34.5996 4.46134 37.1403C1.52298 40.0339 1.59892 42.9513 1.60456 46.7611L1.60492 48H1.0936Z" fill="black"/>
<path d="M14.0003 0.920214C14.0235 0.917638 14.0468 0.914763 14.0701 0.913042C17.4106 0.666519 20.9745 1.82221 23.5402 3.96507C26.4646 6.40733 28.3302 9.70825 28.6713 13.5258C28.9932 17.1337 27.9043 20.8494 25.5712 23.6338C23.0132 26.6865 19.6203 28.3665 15.6731 28.7127C12.0472 28.8498 8.62854 27.8413 5.8533 25.4542C3.00501 23.0044 1.20848 19.6591 0.929576 15.8916C0.661641 12.2723 1.80829 8.56715 4.18696 5.81284C6.73696 2.8602 10.1203 1.2004 14.0003 0.920214Z" fill="black"/>
<path d="M14.3034 1.56847L14.3034 1.56866L14.312 1.56788C14.3581 1.56372 14.4045 1.56031 14.4515 1.55732L14.4515 1.55732C17.696 1.35147 21.2462 2.80195 23.667 4.93756C26.2319 7.20046 27.834 10.6167 28.0423 14.0231C28.2565 17.5257 27.0361 21.0021 24.7085 23.6284L24.8582 23.761L24.7085 23.6284C22.2963 26.3503 18.9332 27.8338 15.3228 28.0551L15.3216 28.0551C15.2808 28.0579 15.2405 28.0604 15.2005 28.0623C11.8538 28.2244 8.3241 26.8279 5.8527 24.5861C3.25438 22.229 1.73422 18.8097 1.56778 15.3155C1.40116 11.8177 2.72887 8.39213 5.07994 5.8069C7.43164 3.22098 10.8262 1.73184 14.3034 1.56847Z" fill="#FEFEFE" stroke="black" stroke-width="0.4"/>
<path d="M12.5005 10.5638C14.0852 10.636 15.7043 10.5689 17.2925 10.5803L17.2872 11.7623C16.0446 11.7842 14.801 11.7334 13.5591 11.8005C13.4979 12.4857 13.446 13.1737 13.3521 13.8552C13.6923 13.722 14.0502 13.5797 14.4099 13.5137C15.1717 13.3738 15.937 13.5189 16.5748 13.9669C17.1969 14.4038 17.595 15.0819 17.7247 15.8266C17.8574 16.5886 17.7034 17.4183 17.2545 18.0538C16.7018 18.8361 15.9461 19.1198 15.037 19.2792C14.3667 19.2891 13.6845 19.1853 13.0998 18.8385C12.314 18.3723 12.0288 17.6501 11.808 16.8043C12.2291 16.7831 12.6535 16.7893 13.0751 16.7856C13.1968 17.0864 13.3201 17.3612 13.5527 17.5951C13.8718 17.916 14.2641 18.0585 14.7122 18.0576C15.1964 18.0565 15.6771 17.9272 16.0234 17.5692C16.3443 17.2374 16.4952 16.7475 16.4831 16.2908C16.4702 15.8092 16.2743 15.3599 15.9233 15.0283C15.6006 14.7234 15.1709 14.5626 14.7273 14.5801C14.1878 14.6015 13.7043 14.8718 13.3423 15.2562L12.0061 15.2966C12.2187 13.7279 12.321 12.1377 12.5005 10.5638Z" fill="black"/>
</g>
</g>
<defs>
<clipPath id="clip0_2182_172">
<rect width="48" height="48" fill="white"/>
</clipPath>
<clipPath id="clip1_2182_172">
<rect width="48" height="48" fill="white"/>
</clipPath>
</defs>
</svg>
