<?xml version="1.0" encoding="utf-8" ?>
<svg xmlns="http://www.w3.org/2000/svg" xmlns:xlink="http://www.w3.org/1999/xlink" width="188" height="188">
	<path fill="#FEFEFE" d="M0 0L188 0L188 2.02402L188 3.98388L188 188L3.99256 188L1.98989 188L0 188L0 0Z"/>
	<path d="M1.98989 188L1.98666 175.812C2.0202 164.142 3.86968 154.961 11.6897 145.904C17.177 139.549 24.5431 134.888 32.7665 133.019C38.975 131.608 45.5014 131.834 51.8263 131.843C60.6977 131.855 69.977 132.404 78.8032 131.449C91.9761 130.022 104.555 123.767 113.915 114.438C134.962 93.4627 131.434 71.3042 131.488 44.3422C131.511 32.7173 134.898 22.0342 143.296 13.6931C156.571 0.507223 170.717 1.9484 188 2.02402L188 3.98388C171.519 3.96772 157.691 2.15375 144.929 14.9018C135.249 24.5715 133.481 34.2238 133.487 47.3872L133.511 65.2962C133.514 69.5054 133.633 73.7309 133.224 77.9258C131.819 92.3598 125.526 105.435 115.303 115.674C105.707 125.286 93.11 131.754 79.5542 133.342C74.3732 133.95 69.1277 133.831 63.9198 133.832L49.4684 133.813C35.9425 133.791 25.2853 134.836 15.1802 144.916C3.67162 156.396 3.96907 167.97 3.99115 183.085L3.99256 188L1.98989 188Z"/>
	<path fill="#353433" d="M54.8346 3.60421C54.9257 3.59412 55.0168 3.58286 55.1082 3.57612C68.1916 2.61057 82.1501 7.13704 92.1994 15.5299C103.653 25.0954 110.96 38.024 112.296 52.9761C113.557 67.1071 109.292 81.66 100.154 92.5656C90.1351 104.522 76.8464 111.102 61.3864 112.458C47.1851 112.995 33.7953 109.045 22.9256 99.6957C11.7698 90.1005 4.7334 76.998 3.64101 62.242C2.5916 48.0666 7.08263 33.5547 16.3991 22.767C26.3866 11.2025 39.6381 4.7016 54.8346 3.60421Z"/>
	<path fill="#FEFEFE" d="M55.9847 5.36055C56.1737 5.34347 56.3627 5.3296 56.5521 5.31759C69.5018 4.49597 83.6045 10.274 93.2136 18.7512C103.423 27.7582 109.786 41.336 110.614 54.8757C111.466 68.8051 106.613 82.6243 97.361 93.0638C87.7614 103.896 74.3875 109.786 60.0622 110.664C59.8992 110.675 59.7362 110.685 59.573 110.693C46.2382 111.339 32.215 105.782 22.3966 96.8755C12.056 87.4949 6.01899 73.9028 5.35783 60.0227C4.69469 46.1011 9.97851 32.4848 19.3167 22.2165C28.6777 11.9232 42.1737 6.00942 55.9847 5.36055Z"/>
	<path fill="#353433" d="M48.9601 41.3752C55.1667 41.6579 61.5082 41.3951 67.7287 41.4396L67.7079 46.0691C62.841 46.1548 57.9704 45.9558 53.1063 46.2189C52.8664 48.9023 52.6633 51.5973 52.2954 54.2665C53.6279 53.7445 55.0297 53.1874 56.4386 52.9287C59.4223 52.381 62.4198 52.9492 64.9178 54.7037C67.3541 56.415 68.9136 59.0711 69.4214 61.9877C69.9411 64.9723 69.3382 68.2219 67.5799 70.7108C65.4151 73.775 62.4553 74.8862 58.8945 75.5103C56.2693 75.5491 53.5974 75.1426 51.3075 73.7842C48.2297 71.9585 47.1127 69.1296 46.2477 65.8169C47.8969 65.7341 49.5593 65.7584 51.2106 65.7438C51.6873 66.9218 52.1701 67.9982 53.0811 68.9142C54.331 70.1711 55.8673 70.7294 57.6225 70.7256C59.5191 70.7214 61.4019 70.2151 62.758 68.8129C64.0148 67.5132 64.606 65.5944 64.5584 63.8057C64.5081 61.9197 63.7406 60.1596 62.3662 58.8611C61.1022 57.6669 59.4193 57.0369 57.6815 57.1056C55.5687 57.1893 53.6749 58.2481 52.2573 59.7535L47.0238 59.9117C47.8565 53.7678 48.2572 47.5395 48.9601 41.3752Z"/>
	<path fill="#FEFEFE" d="M3.99256 188L3.99115 183.085C3.96907 167.97 3.67162 156.396 15.1802 144.916C25.2853 134.836 35.9425 133.791 49.4684 133.813L63.9198 133.832C69.1277 133.831 74.3732 133.95 79.5542 133.342C93.11 131.754 105.707 125.286 115.303 115.674C125.526 105.435 131.819 92.3598 133.224 77.9258C133.633 73.7309 133.514 69.5054 133.511 65.2962L133.487 47.3872C133.481 34.2238 135.249 24.5715 144.929 14.9018C157.691 2.15375 171.519 3.96772 188 3.98388L188 188L3.99256 188Z"/>
</svg>
