<svg width="42" height="30" viewBox="0 0 42 30" fill="none" xmlns="http://www.w3.org/2000/svg">
<g id="[ ]">
<path id="Vector" d="M39.6369 0H23.5228C22.2614 0 21.2353 1.02606 21.2353 2.28745V4.20978H3.18779C1.5679 4.20978 0.25 5.52768 0.25 7.14801V20.7124C0.25 22.3319 1.5679 23.6494 3.18779 23.6494H6.00947V29.3377C6.00947 29.6 6.16399 29.8371 6.40373 29.9435C6.48983 29.9815 6.58078 30 6.67129 30C6.83288 30 6.9927 29.9408 7.11677 29.8278L13.9173 23.6494H25.7515C27.3709 23.6494 28.6888 22.3319 28.6888 20.7124V14.262H31.8999L36.7022 18.6246C36.8267 18.7376 36.9861 18.7967 37.1477 18.7967C37.2382 18.7967 37.3296 18.7782 37.4157 18.7402C37.6554 18.6343 37.8099 18.3967 37.8099 18.1345V14.262H39.6365C40.897 14.262 41.9226 13.2355 41.9226 11.9741V2.28745C41.923 1.02606 40.8978 0 39.6369 0ZM27.3648 20.712C27.3648 21.6012 26.6411 22.3244 25.7519 22.3244H13.6617C13.497 22.3244 13.3385 22.3858 13.2162 22.4966L7.33355 27.841V22.9867C7.33355 22.6206 7.0373 22.3244 6.67129 22.3244H3.18735C2.29771 22.3244 1.57408 21.6012 1.57408 20.712V7.14757C1.57408 6.25793 2.29771 5.53386 3.18735 5.53386H21.8909C21.8931 5.53386 21.8954 5.5343 21.8976 5.5343C21.8998 5.5343 21.902 5.53386 21.9042 5.53386H25.7519C26.6416 5.53386 27.3648 6.25793 27.3648 7.14757V20.712ZM40.5985 11.9741C40.5985 12.5053 40.1671 12.9375 39.6369 12.9375H37.1481C36.7825 12.9375 36.4859 13.2337 36.4859 13.5998V16.6382L32.6015 13.1097C32.4796 12.9993 32.3207 12.9375 32.156 12.9375H28.6888V7.14801C28.6888 5.52812 27.3709 4.20978 25.7515 4.20978H22.5598V2.28745C22.5598 1.75632 22.9921 1.32452 23.5228 1.32452H39.6369C40.1671 1.32452 40.5985 1.75632 40.5985 2.28745V11.9741Z" fill="#C9B1A0" style="fill:#C9B1A0;fill:color(display-p3 0.7895 0.6957 0.6275);fill-opacity:1;"/>
</g>
</svg>
