<svg width="31" height="31" viewBox="0 0 31 31" fill="none" xmlns="http://www.w3.org/2000/svg">
<g id="[ ]">
<g id="Group">
<path id="Vector" d="M15.3724 3.62256C8.98122 3.62256 3.78163 8.82388 3.78163 15.2172C3.78163 21.6101 8.98122 26.8107 15.3724 26.8107C21.7654 26.8107 26.9663 21.6097 26.9663 15.2172C26.9663 14.9308 26.7342 14.6991 26.4482 14.6991H15.8905V4.14065C15.8905 3.85432 15.6588 3.62256 15.3724 3.62256ZM25.9177 15.7352C25.6466 21.3168 21.0203 25.7745 15.3724 25.7745C9.55251 25.7745 4.81782 21.0385 4.81782 15.2172C4.81782 9.56889 9.27412 4.94232 14.8543 4.67118V15.2172C14.8543 15.5031 15.0861 15.7352 15.3724 15.7352H25.9177Z" fill="#C9B1A0" style="fill:#C9B1A0;fill:color(display-p3 0.7895 0.6957 0.6275);fill-opacity:1;"/>
<path id="Vector_2" d="M25.2303 25.1587C24.9464 25.4384 24.6449 25.7054 24.3361 25.9607C23.7924 26.408 23.2136 26.819 22.6119 27.1799C15.9585 31.1751 7.29565 29.0136 3.30114 22.362C1.36554 19.1391 0.800821 15.3556 1.71129 11.7079C2.62175 8.06087 4.89791 4.9865 8.1208 3.05125C11.3437 1.1153 15.1275 0.550581 18.7742 1.4607C22.3128 2.34353 25.3091 4.51469 27.2523 7.5863L26.0479 7.19911C25.775 7.11172 25.4835 7.26197 25.3961 7.5338C25.3084 7.80631 25.4583 8.09783 25.7308 8.18556L28.1372 8.9589C28.1897 8.97582 28.2436 8.98377 28.2957 8.98377C28.514 8.98377 28.7168 8.84526 28.7883 8.62697L29.5896 6.18123C29.6787 5.90905 29.5302 5.6165 29.2583 5.52739C28.9855 5.43793 28.6936 5.58645 28.6045 5.85828L28.1886 7.12796C26.1042 3.779 22.8613 1.412 19.0253 0.454906C15.1092 -0.521183 11.0473 0.0849871 7.58716 2.16289C4.12733 4.24079 1.68331 7.54174 0.705838 11.4571C-0.271633 15.3732 0.334537 19.4354 2.41244 22.8956C5.24296 27.6086 10.255 30.2215 15.3897 30.2215C18.0361 30.2215 20.7157 29.5269 23.1452 28.0683C23.408 27.9104 23.6657 27.7415 23.9199 27.5671C23.9313 27.5605 23.9437 27.5578 23.9544 27.5505C24.2632 27.3385 24.5603 27.1171 24.8362 26.8939C24.8856 26.8542 24.9333 26.811 24.9823 26.7706C25.0162 26.743 25.0511 26.7164 25.0846 26.6884C25.0936 26.6808 25.1001 26.6718 25.1088 26.6639C25.4003 26.4183 25.6866 26.1638 25.9577 25.8968C26.1615 25.6961 26.1643 25.368 25.9633 25.1642C25.7626 24.9604 25.4338 24.9576 25.2303 25.1587Z" fill="#C9B1A0" style="fill:#C9B1A0;fill:color(display-p3 0.7895 0.6957 0.6275);fill-opacity:1;"/>
<path id="Vector_3" d="M28.6242 21.23C28.3683 21.1012 28.0567 21.2034 27.9279 21.4587C27.5555 22.1961 27.1207 22.8993 26.6361 23.549C26.4651 23.7783 26.5125 24.103 26.7414 24.2743C26.8347 24.3438 26.9432 24.3773 27.0509 24.3773C27.2088 24.3773 27.3649 24.3054 27.4664 24.169C27.9869 23.4709 28.4532 22.7166 28.8529 21.9263C28.9817 21.6704 28.8795 21.3588 28.6242 21.23Z" fill="#C9B1A0" style="fill:#C9B1A0;fill:color(display-p3 0.7895 0.6957 0.6275);fill-opacity:1;"/>
<path id="Vector_4" d="M29.8238 17.1757C29.544 17.1273 29.2729 17.3121 29.2218 17.5936C29.084 18.359 28.8819 19.1178 28.6218 19.8483C28.5258 20.1177 28.6667 20.4144 28.9361 20.5101C28.9935 20.5308 29.0522 20.5402 29.1099 20.5402C29.3226 20.5402 29.5223 20.4079 29.5979 20.1958C29.877 19.4117 30.0936 18.5983 30.2417 17.7777C30.2925 17.4962 30.1057 17.2264 29.8238 17.1757Z" fill="#C9B1A0" style="fill:#C9B1A0;fill:color(display-p3 0.7895 0.6957 0.6275);fill-opacity:1;"/>
</g>
</g>
</svg>
