<svg width="31" height="30" viewBox="0 0 31 30" fill="none" xmlns="http://www.w3.org/2000/svg">
<g id="[ ]">
<g id="Group">
<path id="Vector" d="M27.9726 13.5497C27.5732 13.5497 26.9858 13.7106 26.4552 14.4763C26.4323 14.5096 26.4127 14.5451 26.3975 14.5824C26.1084 15.2904 25.5157 15.7285 25.1327 15.7285C24.8169 15.7285 24.4546 15.3614 24.1736 14.7632V6.6329C24.1736 6.32639 23.9252 6.07831 23.619 6.07831H15.5468C14.8898 5.79251 14.486 5.41391 14.486 5.07746C14.486 4.76245 14.8532 4.40086 15.4518 4.1195C15.515 4.10656 15.5771 4.08252 15.6344 4.04666C16.3232 3.61667 16.7025 3.04433 16.7025 2.43502C16.7025 1.04707 14.7718 0 12.2118 0C9.65296 0 7.72299 1.04707 7.72299 2.43502C7.72299 2.81325 7.86718 3.35379 8.52012 3.85884C8.58112 3.95645 8.67171 4.03409 8.78078 4.07846C9.49583 4.37017 9.9395 4.76948 9.9395 5.12035C9.9395 5.43609 9.57199 5.79769 8.97229 6.07831H0.806139C0.500005 6.07831 0.251549 6.32639 0.251549 6.6329V14.8767C0.244894 14.9647 0.259683 15.0545 0.295916 15.1381C0.782477 16.2565 1.50049 16.8725 2.31795 16.8725C3.12544 16.8725 3.85528 16.2447 4.33518 15.144C4.33851 15.1396 4.34147 15.1351 4.34442 15.1303C4.55406 14.8068 4.78921 14.6216 4.98997 14.6216C5.53051 14.6216 6.31581 15.9386 6.31581 18.0024C6.31581 20.0666 5.53051 21.3835 4.98997 21.3835C4.79919 21.3835 4.57624 21.2149 4.37252 20.9184C3.8867 19.8111 3.17239 19.2018 2.3601 19.2018C1.52378 19.2018 0.769536 19.8754 0.29111 21.05C0.258574 21.1299 0.245633 21.2138 0.251549 21.2963V29.4454C0.251549 29.7519 0.500005 30 0.806139 30H9.09135C9.16751 30 9.24256 29.9845 9.31281 29.9538C10.432 29.4669 11.0487 28.7488 11.0487 27.9325C11.0487 27.1391 10.4416 26.4196 9.37567 25.9389C9.3557 25.9212 9.33463 25.9042 9.3117 25.889C9.13202 25.7685 8.83069 25.527 8.83069 25.2616C8.83069 24.721 10.1477 23.9361 12.2118 23.9361C14.2749 23.9361 15.5919 24.7214 15.5919 25.2616C15.5919 25.4435 15.4421 25.652 15.1756 25.8454C15.1538 25.8517 15.1327 25.8594 15.1116 25.8687C13.9928 26.3549 13.3769 27.0729 13.3769 27.8896C13.3769 28.7381 14.0335 29.4731 15.2259 29.9586C15.2924 29.9856 15.363 29.9996 15.4347 29.9996H23.619C23.9252 29.9996 24.1736 29.7515 24.1736 29.445V21.3369C24.4601 20.6799 24.8387 20.2762 25.1745 20.2762C25.4562 20.2762 26.0174 20.6733 26.3509 21.419C26.3657 21.4589 26.3849 21.4974 26.4086 21.5333C26.8323 22.1755 27.3876 22.5293 27.9726 22.5293C29.3609 22.5293 30.4076 20.599 30.4076 18.0393C30.4076 15.4797 29.3605 13.5497 27.9726 13.5497ZM27.9726 21.4201C27.7844 21.4201 27.5636 21.2545 27.3621 20.9639C26.8874 19.9039 25.9927 19.1674 25.1745 19.1674C24.3378 19.1674 23.5835 19.8414 23.1051 21.0164C23.0781 21.0829 23.0644 21.1539 23.0644 21.2253V28.8908H15.5468C14.8898 28.6043 14.486 28.2253 14.486 27.89C14.486 27.5805 14.8399 27.2263 15.4185 26.9479C15.4961 26.9379 15.573 26.9113 15.6429 26.8673C16.3254 26.4384 16.7007 25.8683 16.7007 25.262C16.7007 23.874 14.7707 22.8273 12.2115 22.8273C9.65148 22.8273 7.72114 23.874 7.72114 25.262C7.72114 25.6435 7.86792 26.1922 8.54008 26.7013C8.60035 26.7852 8.68391 26.8514 8.78078 26.8913C9.49546 27.1827 9.93913 27.5816 9.93913 27.9329C9.93913 28.2479 9.57125 28.6098 8.97192 28.8908H1.36036V21.3684C1.64653 20.7136 2.02476 20.3113 2.35973 20.3113C2.6825 20.3113 3.05408 20.6966 3.33766 21.3214C3.35245 21.3713 3.37426 21.4194 3.4031 21.4641C3.83124 22.1274 4.39471 22.4931 4.98997 22.4931C6.37829 22.4931 7.42499 20.5627 7.42499 18.0027C7.42499 15.4431 6.37829 13.5128 4.98997 13.5128C4.4339 13.5128 3.9063 13.8304 3.49257 14.4108C3.43527 14.4648 3.38905 14.531 3.35799 14.6068C3.06776 15.3207 2.66919 15.764 2.31795 15.764C2.00257 15.764 1.64135 15.398 1.36073 14.8013V7.18823H9.09135C9.16714 7.18823 9.24257 7.1727 9.31244 7.14238C10.432 6.65656 11.0487 5.93855 11.0487 5.12109C11.0487 4.33763 10.4556 3.62554 9.4119 3.14416C9.38565 3.11717 9.35607 3.09276 9.3239 3.07132C9.01112 2.86353 8.83217 2.63208 8.83217 2.43539C8.83217 1.89485 10.1488 1.10955 12.2118 1.10955C14.276 1.10955 15.5934 1.89485 15.5934 2.43539C15.5934 2.6258 15.4296 2.84468 15.1393 3.04544C15.1301 3.04914 15.1205 3.05283 15.1112 3.0569C13.9928 3.54383 13.3769 4.26184 13.3769 5.07783C13.3769 5.91526 14.0509 6.6695 15.2262 7.14682C15.2924 7.17381 15.3634 7.18749 15.4347 7.18749H23.0644V14.8822C23.0644 14.9584 23.08 15.0338 23.1106 15.1037C23.5968 16.2218 24.3152 16.8374 25.1327 16.8374C26.023 16.8374 26.9466 16.1112 27.3984 15.0638C27.5222 14.8948 27.7378 14.6586 27.9729 14.6586C28.5135 14.6586 29.2988 15.9755 29.2988 18.0393C29.2988 20.1032 28.5127 21.4201 27.9726 21.4201Z" fill="#C9B1A0" style="fill:#C9B1A0;fill:color(display-p3 0.7895 0.6957 0.6275);fill-opacity:1;"/>
</g>
</g>
</svg>
