<svg width="31" height="30" viewBox="0 0 31 30" fill="none" xmlns="http://www.w3.org/2000/svg">
<g id="[ ]">
<g id="Group">
<path id="Vector" d="M30.0994 5.46183L24.7877 0.150081C24.5876 -0.050027 24.2635 -0.050027 24.0634 0.150081L14.6129 9.60024L8.90775 3.98697C8.90331 3.98253 8.89751 3.97945 8.89273 3.97536C8.87394 3.95828 8.8538 3.94292 8.83228 3.92857C8.82204 3.92174 8.81248 3.91423 8.80189 3.90808C8.77662 3.89374 8.74964 3.88247 8.72164 3.87223C8.71447 3.86984 8.70833 3.8654 8.70115 3.86301L0.974111 1.44874C0.793126 1.39239 0.594043 1.44088 0.459157 1.57542C0.324272 1.71031 0.27544 1.90871 0.332468 2.09038L2.74708 9.81708C2.76177 9.86386 2.7843 9.90689 2.81128 9.94718C2.81982 9.96016 2.83006 9.97075 2.83962 9.9827C2.85226 9.99841 2.8625 10.0155 2.87685 10.0295L8.57617 15.6369L0.400081 23.8134C0.199973 24.0135 0.199973 24.3376 0.400081 24.5377L5.71217 29.8501C5.80812 29.946 5.93857 30 6.07448 30C6.21039 30 6.34049 29.946 6.43679 29.8501L14.6972 21.5897L21.3807 28.085C21.4661 28.1673 21.5733 28.2072 21.6829 28.2192C22.4581 28.938 23.4579 29.3358 24.5213 29.3358C25.6386 29.3358 26.6894 28.9008 27.4792 28.1106C29.0886 26.5012 29.1067 23.8974 27.5397 22.2617C27.5147 22.1767 27.4703 22.0981 27.4055 22.0356L20.7025 15.584L30.0997 6.18645C30.2995 5.986 30.2995 5.66193 30.0994 5.46183ZM7.91506 4.6911L7.53226 5.99215L5.74768 6.517C5.5807 6.56618 5.44991 6.69662 5.40074 6.86395L4.87622 8.64819L3.57483 9.03099L1.6021 2.71836L7.91506 4.6911ZM6.07414 28.7635L1.48633 24.1754L3.41639 22.2453L5.71012 24.539C5.81017 24.6391 5.9413 24.6889 6.07243 24.6889C6.20356 24.6889 6.33469 24.6391 6.43474 24.539C6.63485 24.3389 6.63485 24.0149 6.43474 23.8147L4.14101 21.521L6.02052 19.6415L8.31426 21.9352C8.41431 22.0353 8.54544 22.0851 8.67657 22.0851C8.8077 22.0851 8.93883 22.0353 9.03888 21.9352C9.23899 21.7351 9.23899 21.4111 9.03888 21.211L6.74515 18.9172L9.30933 16.353L13.9627 20.8756L6.07414 28.7635ZM26.7539 27.386C25.6076 28.5316 23.794 28.6098 22.5551 27.6233L26.9916 23.1868C27.9781 24.426 27.8999 26.2403 26.7539 27.386ZM21.7321 26.998L9.6293 15.2357L4.21614 9.90996L5.43352 9.55209C5.6005 9.50292 5.73129 9.37247 5.78046 9.20514L6.30532 7.4209L8.0899 6.89605C8.25689 6.84687 8.38767 6.71643 8.43685 6.5491L8.7995 5.3167L19.606 15.9491L26.3192 22.4113L21.7321 26.998ZM19.968 14.8696L15.343 10.3187L17.972 7.68965L20.2658 9.98338C20.3658 10.0834 20.4969 10.1333 20.6281 10.1333C20.7592 10.1333 20.8903 10.0834 20.9904 9.98338C21.1905 9.78361 21.1905 9.45887 20.9904 9.2591L18.6967 6.96537L20.8323 4.82974L23.126 7.12347C23.2261 7.22353 23.3572 7.27338 23.4883 7.27338C23.6195 7.27338 23.7506 7.22353 23.8506 7.12347C24.0507 6.92371 24.0507 6.59896 23.8506 6.39919L21.5569 4.10546L24.426 1.23633L29.0132 5.82414L19.968 14.8696Z" fill="#C9B1A0" style="fill:#C9B1A0;fill:color(display-p3 0.7895 0.6957 0.6275);fill-opacity:1;"/>
</g>
</g>
</svg>
