<svg width="37" height="37" viewBox="0 0 37 37" fill="none" xmlns="http://www.w3.org/2000/svg">
<g clip-path="url(#clip0_1796_25725)">
<path d="M18.0225 0.689453C8.08143 0.689453 0.0224609 8.74843 0.0224609 18.6895C0.0224609 28.6305 8.08143 36.6895 18.0225 36.6895C27.9635 36.6895 36.0225 28.6305 36.0225 18.6895C36.0225 8.74843 27.9635 0.689453 18.0225 0.689453ZM28.7903 11.2317C28.7983 11.2317 28.8052 11.2361 28.8133 11.2364L18.7689 21.2808C18.4342 21.6155 17.8414 21.6162 17.5067 21.28L7.45834 11.2317H28.7903ZM6.75786 11.9037C6.75786 11.8982 6.76078 11.8938 6.76078 11.8887L13.5885 18.7165L6.75786 25.5471V11.9037ZM7.42987 26.3349C7.39884 26.3349 7.37219 26.3213 7.34226 26.3173L14.2656 19.3939L16.8292 21.9575C17.1778 22.3061 17.6425 22.4977 18.1378 22.4977C18.6335 22.4977 19.0975 22.3054 19.4461 21.9575L21.9267 19.4768L28.7848 26.3349H7.42987ZM29.4623 25.6577L22.6042 18.7997L29.4623 11.942V25.6577Z" fill="#333333"/>
</g>
<defs>
<clipPath id="clip0_1796_25725">
<rect width="36" height="36" fill="white" transform="translate(0.0224609 0.689453)"/>
</clipPath>
</defs>
</svg>
