<svg width="37" height="37" viewBox="0 0 37 37" fill="none" xmlns="http://www.w3.org/2000/svg">
<g clip-path="url(#clip0_1796_25719)">
<path d="M18.0614 10.5742C17.6391 10.5742 17.2277 10.6213 16.8317 10.7096C17.5522 11.0947 18.0424 11.854 18.0424 12.7282C18.0424 13.9916 17.0182 15.0158 15.7548 15.0158C14.5634 15.0158 13.5851 14.1047 13.4775 12.9414C12.8244 13.8598 12.4404 14.9826 12.4404 16.1956C12.4404 19.3001 14.9569 21.8166 18.0614 21.8166C21.1659 21.8166 23.6824 19.2997 23.6824 16.1956C23.6824 13.0907 21.1656 10.5742 18.0614 10.5742Z" fill="#333333"/>
<path d="M18.0225 0.689453C8.08143 0.689453 0.0224609 8.74843 0.0224609 18.6895C0.0224609 28.6305 8.08143 36.6895 18.0225 36.6895C27.9635 36.6895 36.0225 28.6305 36.0225 18.6895C36.0225 8.74843 27.9635 0.689453 18.0225 0.689453ZM18.0801 30.503C15.9053 30.503 8.79943 22.5087 8.79943 16.1566C8.79943 11.0309 12.9545 6.87586 18.0801 6.87586C23.2058 6.87586 27.2455 11.0309 27.2455 16.1566C27.2455 22.3904 20.1396 30.503 18.0801 30.503Z" fill="#333333"/>
</g>
<defs>
<clipPath id="clip0_1796_25719">
<rect width="36" height="36" fill="white" transform="translate(0.0224609 0.689453)"/>
</clipPath>
</defs>
</svg>
