<svg width="37" height="37" viewBox="0 0 37 37" fill="none" xmlns="http://www.w3.org/2000/svg">
<path fill-rule="evenodd" clip-rule="evenodd" d="M18.1296 36.6895C28.1299 36.6895 36.2367 28.6306 36.2367 18.6895C36.2367 8.74833 28.1299 0.689453 18.1296 0.689453C8.1293 0.689453 0.0224609 8.74833 0.0224609 18.6895C0.0224609 28.6306 8.1293 36.6895 18.1296 36.6895ZM25.8681 28.2335C26.9088 28.0786 29.0742 26.9228 29.5258 25.657C29.9774 24.3912 29.9774 23.3056 29.8421 23.0798C29.7332 22.8976 29.4781 22.7743 29.1003 22.5918C29.0085 22.5474 28.9095 22.4996 28.8035 22.4466C28.2615 22.1752 25.5967 20.8645 25.1002 20.6836C24.603 20.5026 24.2419 20.4129 23.8807 20.955C23.5196 21.497 22.481 22.718 22.1648 23.0798C21.8492 23.441 21.5329 23.4866 20.9909 23.2152C20.9023 23.1708 20.7815 23.1184 20.6324 23.0537C19.8692 22.7226 18.3641 22.0695 16.6326 20.5251C15.0215 19.0885 13.9338 17.3139 13.6175 16.7711C13.3012 16.229 13.5835 15.9352 13.8549 15.6652C14.0159 15.5047 14.2001 15.2803 14.3849 15.0552C14.4801 14.9393 14.5754 14.8232 14.6676 14.7157C14.897 14.4483 14.9967 14.2451 15.1313 13.9705C15.1559 13.9203 15.1817 13.8676 15.2097 13.8117C15.3906 13.4499 15.3002 13.1336 15.1648 12.8622C15.0737 12.6794 14.552 11.4097 14.0832 10.2685C13.856 9.71544 13.6412 9.19261 13.4937 8.83826C13.1051 7.90573 12.7115 7.90796 12.3954 7.90975C12.3536 7.90999 12.3132 7.91021 12.2743 7.90827C11.9587 7.89307 11.5969 7.88945 11.2357 7.88945C10.8746 7.88945 10.2869 8.02479 9.79042 8.56759C9.75862 8.60231 9.72312 8.64017 9.68453 8.68133C9.11988 9.28361 7.89352 10.5917 7.89352 13.0887C7.89352 15.7371 9.80804 18.2956 10.1006 18.6866L10.1067 18.6947C10.1245 18.7185 10.1564 18.7643 10.2022 18.8299C10.8522 19.7619 14.2853 24.6844 19.3654 26.8772C20.6587 27.4352 21.6683 27.7689 22.455 28.0186C23.7526 28.4311 24.9345 28.3732 25.8681 28.2335Z" fill="#333333"/>
</svg>
